<svg xmlns="http://www.w3.org/2000/svg" width="662" height="159" viewBox="0 0 662 159"><path fill="#FFFDD8" d="M225.588 50.005c15 0 26.1 4.65 36.3 13.95 1.35 1.2 1.35 3 .15 4.2l-11.7 12.148c-1.05 1.05-2.7 1.05-3.75 0-5.55-4.95-12.9-7.65-20.25-7.65-16.95 0-29.4 14.1-29.4 30.9 0 16.648 12.6 30.448 29.55 30.448 7.05 0 14.7-2.55 20.1-7.2 1.05-.9 3-.9 3.9.15l11.7 12.45c1.05 1.05.9 3-.15 4.05-10.2 9.9-23.1 14.55-36.45 14.55-30 0-54.147-23.85-54.147-53.848 0-29.998 24.15-54.147 54.148-54.147zM280.04 54.354c0-1.5 1.2-2.85 2.85-2.85h17.848c1.5 0 2.85 1.35 2.85 2.85v80.097h35.698c1.65 0 2.85 1.35 2.85 2.85v16.35c0 1.5-1.2 2.85-2.85 2.85H282.89c-1.65 0-2.85-1.35-2.85-2.85V54.355zM402.285 50.005c30 0 53.998 24.15 53.998 54.147 0 30-24 53.85-53.998 53.85s-53.848-23.85-53.848-53.85c0-29.998 23.85-54.147 53.848-54.147zm0 83.996c16.5 0 30-13.5 30-29.848 0-16.5-13.5-30.15-30-30.15-16.35 0-29.85 13.65-29.85 30.15.003 16.35 13.5 29.85 29.85 29.85zM520.933 50.005c15 0 26.1 4.65 36.3 13.95 1.35 1.2 1.35 3 .15 4.2l-11.7 12.148c-1.05 1.05-2.7 1.05-3.75 0-5.55-4.95-12.9-7.65-20.25-7.65-16.948 0-29.398 14.1-29.398 30.9 0 16.648 12.6 30.448 29.55 30.448 7.05 0 14.7-2.55 20.098-7.2 1.05-.9 3-.9 3.9.15l11.7 12.45c1.05 1.05.9 3-.15 4.05-10.2 9.9-23.1 14.55-36.45 14.55-30 0-54.146-23.85-54.146-53.848 0-29.998 24.148-54.147 54.146-54.147zM575.383 55.104c0-1.95 1.5-3.6 3.6-3.6h17.55c1.95 0 3.6 1.65 3.6 3.6v39.45l33.3-41.55c.6-.75 1.95-1.5 2.85-1.5h18.898c2.852 0 4.352 3.3 2.7 5.55l-35.098 43.95L661.03 150.8c1.65 2.25 0 5.552-2.85 5.552h-20.7c-1.05 0-2.4-.6-2.7-1.05l-34.647-47.1V152.9c0 1.95-1.65 3.6-3.6 3.6h-17.55c-2.1 0-3.6-1.65-3.6-3.6V55.104zM144.692.168c-15.828 0-28.41 12.74-28.41 28.568s12.582 28.41 28.41 28.41 28.49-12.582 28.49-28.41S160.52.168 144.692.168zm-.014 49.575c-11.49 0-20.98-9.488-20.98-20.98 0-11.595 9.49-21.188 20.98-21.188 11.597 0 21.085 9.593 21.085 21.19 0 11.49-9.488 20.978-21.085 20.978z"/><path fill="#FFFDD8" d="M144.73 51.788c-12.773 0-23.13-10.356-23.13-23.13 0-5.044 1.62-9.707 4.36-13.508C112.88 5.61 96.74-.013 79.2-.013 35.11-.013.062 35.477.062 79.564.063 123.65 35.11 158.7 79.2 158.7c44.086 0 79.355-35.05 79.355-79.136 0-10.367-1.95-20.258-5.507-29.324-2.582.996-5.384 1.548-8.318 1.548zM79.2 123.43c-24.03 0-43.868-19.84-43.868-43.865 0-24.25 19.84-44.308 43.867-44.308 24.247 0 44.086 20.06 44.086 44.308 0 24.026-19.84 43.866-44.087 43.866z"/></svg>